<svg width="512" height="512" viewBox="0 0 512 512" fill="none" xmlns="http://www.w3.org/2000/svg">
  <rect width="512" height="512" rx="96" fill="#5E17EB"/>
  <g transform="translate(120, 100) scale(2.5)">
    <path d="M14.15 22.83C27.75 32.4 34.16 47.91 37.18 63.93L37.46 65.49C42.56 94.63 38.77 124 37.71 153.42L0.59 139.56L0.5 31.64C0.56 31.37 0.73 31.06 1.05 30.7C1.37 30.33 1.82 29.93 2.37 29.52C3.48 28.7 4.94 27.86 6.5 27.04C8.08 26.19 9.63 25.43 11.08 24.66C12.3 24.01 13.4 23.39 14.15 22.83Z" fill="white"/>
    <path d="M106.36 30.77C106.79 31.22 107.1 32.11 107.27 33.39C107.44 34.67 107.46 36.23 107.42 37.86C107.38 39.48 107.27 41.14 107.2 42.64C107.13 43.96 107.08 45.16 107.13 46.07C91.49 55.59 75.67 53.46 60.37 46.95C52.68 43.68 45.13 39.31 37.83 34.78C30.6 30.29 23.59 25.63 16.95 21.75L16.65 20.77C22.98 17.71 29 13.99 35.01 10.39C41.1 6.74 47.19 3.22 53.67 0.56L106.36 30.77Z" fill="white"/>
    <path d="M107.28 92.69L43.62 115.25C41.58 90.73 61.23 75.5 80.28 63.83C88.9 58.55 98.09 53.75 107.28 49.53V92.69Z" fill="white"/>
  </g>
</svg>
