<svg width="337" height="67" viewBox="0 0 337 67" fill="none" xmlns="http://www.w3.org/2000/svg">
<g clip-path="url(#clip0_5605_7893)">
<path d="M6.14648 10.2715C12.0517 14.5126 14.7637 21.4085 16.0059 28.5176C18.1935 41.0164 16.6085 53.5957 16.1279 66.2861L0.539062 60.4668L0.5 13.792C0.518407 13.7374 0.563884 13.6499 0.667969 13.5303C0.790944 13.389 0.969091 13.2318 1.2002 13.0605C1.66348 12.7173 2.28329 12.3595 2.95605 12.001C3.65852 11.6266 4.29391 11.3145 4.94824 10.9688C5.39258 10.7339 5.81518 10.497 6.14648 10.2715Z" fill="white" stroke="white"/>
<path d="M46.0511 13.5977C46.1623 13.7345 46.2779 14.0326 46.347 14.5508C46.4184 15.0865 46.4277 15.7471 46.4095 16.4492C46.3913 17.1504 46.3469 17.865 46.3138 18.5195C46.2889 19.0116 46.2697 19.4813 46.2796 19.8662C39.6324 23.8407 32.9095 22.937 26.3519 20.1494C23.0281 18.7365 19.7637 16.8465 16.5931 14.8779C13.4985 12.9566 10.4679 10.9444 7.60675 9.26855L7.57843 9.17383C10.2636 7.85715 12.8235 6.27939 15.3655 4.75684C17.9682 3.198 20.5607 1.69719 23.3089 0.555664L46.0511 13.5977Z" fill="white" stroke="white"/>
<path d="M46.3471 40.0889L19.2163 49.7051C18.5702 39.4492 26.8507 33.0088 35.0454 27.9863C38.6534 25.7762 42.4983 23.7612 46.3471 21.9736V40.0889Z" fill="white" stroke="white"/>
<path d="M80.1711 17.0388C84.3423 17.0389 87.6301 18.1321 89.8673 20.0623C92.0955 21.9848 93.3361 24.7839 93.3361 28.3171V29.0515C93.3361 32.537 92.0981 35.3258 89.8693 37.2498C87.6319 39.1812 84.3435 40.2858 80.1711 40.2859H74.9328V49.8992H68.3869V17.0388H80.1711ZM74.9328 34.7478H80.5402C82.4164 34.7478 83.9678 34.1609 85.0509 33.0779C86.1336 31.9952 86.6984 30.467 86.6984 28.6824C86.6984 26.8981 86.1336 25.3597 85.0529 24.2654C83.9709 23.1699 82.4196 22.5681 80.5402 22.5681H74.9328V34.7478Z" fill="white" stroke="white"/>
<path d="M103.548 17.3115V49.8955H97.1386V22.7412H97.8515L96.996 21.8867L96.9921 21.8828L96.1386 21.0303V21.7412H94.1513V17.3115H103.548Z" fill="white" stroke="white"/>
<path d="M118.127 25.2708C121.936 25.2708 124.779 26.056 126.664 27.6184C128.53 29.1658 129.541 31.5466 129.541 34.9387V49.8997H124.698V45.6614L123.724 45.5051C123.178 47.1665 122.283 48.413 121.049 49.2493C119.811 50.0879 118.189 50.5422 116.146 50.5422C113.52 50.5422 111.369 49.8186 109.883 48.5305C108.451 47.2894 107.592 45.4853 107.54 43.1702V42.9465C107.54 40.3266 108.61 38.4844 110.46 37.2737C112.341 36.0429 115.07 35.4387 118.404 35.4387H123.458V34.8459C123.458 33.489 123.144 32.3709 122.383 31.5969C121.62 30.8213 120.5 30.4837 119.095 30.4836C117.135 30.4836 113.153 30.6474 110.347 30.8206V25.6008C112.478 25.4306 115.702 25.2708 118.127 25.2708ZM118.355 38.5344C116.981 38.5344 115.848 38.904 115.053 39.6184C114.252 40.3385 113.852 41.3572 113.852 42.5325C113.852 43.7092 114.252 44.7095 115.06 45.4075C115.857 46.0968 116.989 46.4377 118.355 46.4377C119.622 46.4377 120.866 46.1458 121.819 45.2854C122.777 44.4208 123.361 43.0566 123.457 41.0872L123.458 41.0754V38.5344H118.355Z" fill="white" stroke="white"/>
<path d="M137.956 25.6848L143.416 44.2356L143.521 44.595H145.208L145.301 44.2131L149.81 25.6848H155.762L148.884 52.2942C148.139 55.2072 147.078 57.0665 145.466 58.217C143.845 59.3745 141.58 59.8782 138.282 59.8782H134.272V54.6213H139.016C140.235 54.6213 141.246 54.4203 142.043 53.8342C142.844 53.2455 143.349 52.328 143.687 51.0754L143.695 51.0461L143.923 49.9426L144.047 49.3411H139.013L131.599 25.6848H137.956Z" fill="white" stroke="white"/>
<path d="M171.13 17.0388C175.303 17.0389 178.591 18.1321 180.828 20.0623C183.056 21.9847 184.295 24.7837 184.295 28.3171V29.0515C184.295 32.537 183.057 35.3258 180.828 37.2498C178.591 39.1812 175.302 40.2858 171.13 40.2859H165.891V49.8992H159.346V17.0388H171.13ZM165.891 34.7478H171.499C173.375 34.7478 174.927 34.1609 176.01 33.0779C177.092 31.9952 177.657 30.467 177.657 28.6824C177.657 26.8981 177.092 25.3597 176.012 24.2654C174.93 23.1699 173.378 22.5681 171.499 22.5681H165.891V34.7478Z" fill="white" stroke="white"/>
<path d="M202.094 25.363H202.562V30.7117H201.223C199.083 30.7117 197.352 31.3151 196.158 32.5164C194.964 33.7171 194.375 35.4471 194.375 37.5613V49.8953H188.014V25.6843H192.852V33.7419L193.849 33.7937C194.141 31.0118 195.01 28.9123 196.374 27.5115C197.729 26.1193 199.627 25.363 202.094 25.363Z" fill="white" stroke="white"/>
<path d="M216.173 24.8132C220.155 24.8133 223.156 26.2884 225.167 28.5554C227.185 30.831 228.234 33.9392 228.234 37.24V39.2253H209.707L209.792 39.7996C210.055 41.5743 210.7 43.0819 211.816 44.1472C212.939 45.219 214.487 45.7917 216.451 45.7917C219.079 45.7917 221.037 44.7607 221.84 43.0769H227.633C226.379 47.6436 222.29 50.7701 216.451 50.7703C208.173 50.7703 203.839 44.5111 203.839 38.2517V37.3318C203.84 30.8401 208.265 24.8132 216.173 24.8132ZM216.169 29.7927C214.48 29.7928 213.053 30.2841 211.967 31.2673C210.886 32.2467 210.19 33.6707 209.878 35.4509L209.775 36.0369H222.264L222.186 35.4685C221.945 33.7154 221.324 32.2872 220.294 31.2957C219.259 30.2981 217.86 29.7927 216.169 29.7927Z" fill="white" stroke="white"/>
<path d="M243.962 30.0693C241.956 30.0693 240.22 30.8785 238.992 32.2764C237.767 33.67 237.069 35.6226 237.069 37.8867C237.069 40.1539 237.782 42.0744 239.023 43.4336C240.267 44.7955 242.014 45.5625 244.01 45.5625C245.831 45.5624 247.515 44.9216 248.745 43.7041C249.978 42.4837 250.722 40.7168 250.722 38.5293V38.0293H250.717V36.8262C250.717 32.5079 247.462 30.0694 243.962 30.0693ZM230.709 37.3809C230.709 33.8257 231.826 30.7168 233.77 28.5039C235.709 26.2968 238.493 24.9542 241.893 24.9541C245.382 24.9541 248.014 26.3123 249.612 28.9053L250.538 30.4072V17.3203H256.942V49.9043H252.099V45.1113L251.136 44.9229C249.608 48.6757 246.396 50.7314 242.167 50.7314C235.461 50.7314 230.796 45.6197 230.708 38.6436H230.709V37.3809Z" fill="white" stroke="white"/>
<path d="M270.33 25.6838V49.8948H263.969V30.1135H260.613V25.6838H270.33ZM266.321 15.5208C267.602 15.5208 268.471 15.8923 269.021 16.4563C269.574 17.0233 269.869 17.8505 269.869 18.884C269.868 19.9171 269.574 20.7312 269.024 21.2864C268.475 21.84 267.606 22.2024 266.321 22.2024C265.039 22.2024 264.169 21.8307 263.619 21.2708C263.066 20.7084 262.773 19.8928 262.773 18.884C262.773 17.8505 263.068 17.0233 263.62 16.4563C264.171 15.8923 265.039 15.5208 266.321 15.5208Z" fill="white" stroke="white"/>
<path d="M287.07 24.8132C293.404 24.8133 297.899 28.6306 298.489 34.1658H292.241C292.049 33.111 291.564 32.1523 290.779 31.4294C289.88 30.6026 288.626 30.118 287.07 30.1179C285.055 30.1179 283.53 30.924 282.528 32.3416C281.543 33.7343 281.096 35.668 281.096 37.8865C281.096 40.0943 281.492 41.989 282.466 43.3425C283.462 44.7262 285.007 45.4704 287.117 45.4705C288.684 45.4705 289.962 45.0279 290.895 44.2C291.725 43.4631 292.242 42.4553 292.467 41.282H298.678C298.127 46.9411 293.465 50.7703 287.117 50.7703C282.904 50.7702 279.823 49.2259 277.791 46.9197C275.751 44.6048 274.737 41.4863 274.736 38.3005V37.4246C274.736 34.1022 275.817 30.9485 277.886 28.6316C279.948 26.3227 283.018 24.8132 287.07 24.8132Z" fill="white" stroke="white"/>
<path d="M309.21 18.8779V25.6885H316.571V30.0693H309.21V40.8301C309.21 42.0913 309.558 43.1532 310.29 43.9004C311.025 44.6491 312.078 45.0127 313.344 45.0127H316.571V50.2256H313.529C309.765 50.2256 307.261 49.5919 305.685 48.1377C304.12 46.693 303.356 44.3277 303.356 40.5576V30.0693H299.537V25.6885H303.356V18.8779H309.21Z" fill="white" stroke="white"/>
<path d="M330.265 14.552H331.461C332.262 14.552 332.794 14.8996 332.794 15.6871V15.7663C332.794 16.3383 332.513 16.6771 332.06 16.8223L333.12 18.2258H332.526L331.54 16.9015H330.757V18.2258H330.265V14.552ZM330.757 14.9832V16.4703H331.554C332.011 16.4703 332.293 16.1579 332.293 15.7311C332.293 15.3044 332.007 14.9832 331.554 14.9832H330.757Z" fill="white"/>
<mask id="mask0_5605_7893" style="mask-type:luminance" maskUnits="userSpaceOnUse" x="330" y="14" width="4" height="5">
<path d="M330.265 14.552H331.461C332.262 14.552 332.794 14.8996 332.794 15.6871V15.7663C332.794 16.3383 332.513 16.6771 332.06 16.8223L333.12 18.2258H332.526L331.54 16.9015H330.757V18.2258H330.265V14.552ZM330.757 14.9832V16.4703H331.554C332.011 16.4703 332.293 16.1579 332.293 15.7311C332.293 15.3044 332.007 14.9832 331.554 14.9832H330.757Z" fill="white"/>
</mask>
<g mask="url(#mask0_5605_7893)">
<path d="M330.265 14.552V13.552H329.265V14.552H330.265ZM332.06 16.8223L331.754 15.87L330.412 16.3001L331.262 17.4251L332.06 16.8223ZM333.12 18.2258V19.2258H335.129L333.918 17.623L333.12 18.2258ZM332.526 18.2258L331.724 18.8228L332.024 19.2258H332.526V18.2258ZM331.54 16.9015L332.343 16.3045L332.043 15.9015H331.54V16.9015ZM330.757 16.9015V15.9015H329.757V16.9015H330.757ZM330.757 18.2258V19.2258H331.757V18.2258H330.757ZM330.265 18.2258H329.265V19.2258H330.265V18.2258ZM330.757 14.9832V13.9832H329.757V14.9832H330.757ZM330.757 16.4703H329.757V17.4703H330.757V16.4703ZM330.265 14.552V15.552H331.461V14.552V13.552H330.265V14.552ZM331.461 14.552V15.552C331.738 15.552 331.816 15.615 331.806 15.6071C331.795 15.5987 331.785 15.5847 331.782 15.5768C331.78 15.5731 331.794 15.6026 331.794 15.6871H332.794H333.794C333.794 15.0484 333.565 14.4508 333.05 14.0414C332.574 13.6628 331.985 13.552 331.461 13.552V14.552ZM332.794 15.6871H331.794V15.7663H332.794H333.794V15.6871H332.794ZM332.794 15.7663H331.794C331.794 15.8276 331.787 15.8601 331.783 15.8715C331.781 15.8814 331.781 15.8766 331.789 15.8654C331.792 15.8606 331.796 15.8563 331.8 15.853C331.803 15.8497 331.805 15.8485 331.804 15.8488C331.803 15.8496 331.789 15.8589 331.754 15.87L332.06 16.8223L332.365 17.7746C332.752 17.6506 333.13 17.4211 333.405 17.0433C333.681 16.6651 333.794 16.2195 333.794 15.7663H332.794ZM332.06 16.8223L331.262 17.4251L332.322 18.8286L333.12 18.2258L333.918 17.623L332.858 16.2195L332.06 16.8223ZM333.12 18.2258V17.2258H332.526V18.2258V19.2258H333.12V18.2258ZM332.526 18.2258L333.328 17.6288L332.343 16.3045L331.54 16.9015L330.738 17.4985L331.724 18.8228L332.526 18.2258ZM331.54 16.9015V15.9015H330.757V16.9015V17.9015H331.54V16.9015ZM330.757 16.9015H329.757V18.2258H330.757H331.757V16.9015H330.757ZM330.757 18.2258V17.2258H330.265V18.2258V19.2258H330.757V18.2258ZM330.265 18.2258H331.265V14.552H330.265H329.265V18.2258H330.265ZM330.757 14.9832H329.757V16.4703H330.757H331.757V14.9832H330.757ZM330.757 16.4703V17.4703H331.554V16.4703V15.4703H330.757V16.4703ZM331.554 16.4703V17.4703C332.019 17.4703 332.474 17.3059 332.812 16.9573C333.146 16.6133 333.293 16.1661 333.293 15.7311H332.293H331.293C331.293 15.7229 331.299 15.6453 331.377 15.5643C331.414 15.5262 331.456 15.5002 331.494 15.4851C331.531 15.4705 331.554 15.4703 331.554 15.4703V16.4703ZM332.293 15.7311H333.293C333.293 15.2931 333.143 14.8476 332.815 14.505C332.481 14.1569 332.027 13.9832 331.554 13.9832V14.9832V15.9832C331.533 15.9832 331.449 15.97 331.371 15.8892C331.299 15.814 331.293 15.7424 331.293 15.7311H332.293ZM331.554 14.9832V13.9832H330.757V14.9832V15.9832H331.554V14.9832Z" fill="white"/>
</g>
<path d="M331.571 21.1428C334.096 21.1428 336.142 19.0961 336.142 16.5714C336.142 14.0467 334.096 12 331.571 12C329.047 12 327 14.0467 327 16.5714C327 19.0961 329.047 21.1428 331.571 21.1428Z" stroke="white" stroke-miterlimit="10"/>
</g>
<defs>
<clipPath id="clip0_5605_7893">
<rect width="337" height="67" fill="white"/>
</clipPath>
</defs>
</svg>
