<svg width="765" height="155" viewBox="0 0 765 155" fill="none" xmlns="http://www.w3.org/2000/svg">
<g clip-path="url(#clip0_5556_6252)">
<path d="M14.1475 22.8306C27.7549 32.3984 34.1597 47.9088 37.1797 63.9302L37.4639 65.4937C42.5638 94.6315 38.7749 123.998 37.7148 153.417L0.589844 139.557L0.5 31.6382C0.560704 31.3746 0.73202 31.0614 1.0459 30.7007C1.37121 30.3268 1.82117 29.9326 2.37402 29.5229C3.48061 28.7031 4.9427 27.863 6.49512 27.0356C8.07715 26.1925 9.62992 25.4255 11.0791 24.6597C12.2999 24.0145 13.398 23.3936 14.1475 22.8306Z" fill="#5E17EB" stroke="#5E17EB"/>
<path d="M106.36 30.7734C106.79 31.2225 107.096 32.1097 107.267 33.3887C107.438 34.6733 107.46 36.2336 107.418 37.8584C107.376 39.4821 107.271 41.1418 107.195 42.6367C107.129 43.9565 107.084 45.1629 107.133 46.0674C91.487 55.587 75.6653 53.4553 60.3692 46.9531C52.6757 43.6827 45.1322 39.3129 37.8301 34.7793C30.6043 30.293 23.589 25.6299 16.9503 21.7539L16.6534 20.7695C22.9805 17.7092 28.9957 13.9918 35.0147 10.3867C41.0954 6.74473 47.1877 3.21676 53.669 0.555664L106.36 30.7734Z" fill="#5E17EB" stroke="#5E17EB"/>
<path d="M107.275 92.6863L43.6186 115.249C41.5798 90.7281 61.2344 75.5042 80.2826 63.8298C88.8977 58.5524 98.0918 53.7537 107.275 49.5271V92.6863Z" fill="#5E17EB" stroke="#5E17EB"/>
<path d="M184.436 38.5481C194.14 38.5481 201.871 41.0921 207.168 45.6624C212.456 50.2249 215.373 56.8536 215.373 65.1448V66.8342C215.373 75.0175 212.46 81.6211 207.172 86.1858C201.876 90.758 194.144 93.3293 184.436 93.3293H173.034V115.446H156.676V38.5481H184.436ZM173.034 79.2883H185.285C189.465 79.2883 192.855 77.9829 195.202 75.636C197.549 73.2894 198.802 69.9522 198.802 65.9846C198.802 62.0175 197.55 58.6534 195.205 56.2795C192.86 53.9044 189.468 52.5686 185.285 52.5686H173.034V79.2883Z" fill="#5E17EB" stroke="#5E17EB"/>
<path d="M238.865 39.1755V115.435H222.821V51.6658H223.539L222.684 50.8123L222.674 50.8015L221.821 49.95V50.6658H215.948V39.1755H238.865Z" fill="#5E17EB" stroke="#5E17EB"/>
<path d="M271.755 57.4861C280.591 57.4861 287.307 59.3041 291.809 63.0359C296.293 66.7526 298.664 72.4393 298.664 80.3777V115.446H286.222V105.045L285.247 104.888C283.955 108.824 281.819 111.821 278.841 113.838C275.861 115.857 271.995 116.924 267.2 116.924C261.043 116.924 255.929 115.227 252.363 112.136C248.909 109.143 246.861 104.804 246.744 99.2996H246.748V98.7996C246.748 92.5604 249.315 88.1153 253.76 85.2058C258.237 82.2762 264.661 80.8777 272.392 80.8777H283.368V80.1648C283.368 77.1316 282.665 74.758 281.082 73.1472C279.497 71.5347 277.12 70.7781 273.981 70.7781C269.328 70.7781 259.677 71.1828 253.206 71.5964V58.2976C258.103 57.8869 265.923 57.4861 271.755 57.4861ZM272.281 89.3015C269.229 89.3015 266.794 90.119 265.117 91.6267C263.433 93.14 262.57 95.2969 262.57 97.8484C262.57 100.401 263.435 102.508 265.125 103.969C266.804 105.422 269.238 106.182 272.281 106.182C275.104 106.182 277.784 105.531 279.815 103.699C281.85 101.862 283.151 98.9131 283.368 94.4919V89.3015H272.281Z" fill="#5E17EB" stroke="#5E17EB"/>
<path d="M317.858 58.437L330.557 101.583L330.662 101.941H333.545L333.638 101.559L344.132 58.437H359.177L343.144 120.466C341.412 127.239 338.914 131.687 335.028 134.46C331.133 137.241 325.756 138.402 318.121 138.402H308.247V125.009H319.812C322.555 125.009 324.718 124.553 326.391 123.323C328.067 122.09 329.171 120.14 329.93 117.332L329.934 117.317L329.937 117.302L330.463 114.761L330.588 114.161H319.329L301.862 58.437H317.858Z" fill="#5E17EB" stroke="#5E17EB"/>
<path d="M393.689 38.5481C403.399 38.5481 411.13 41.0921 416.426 45.6624C421.712 50.2248 424.627 56.8535 424.627 65.1448V66.8342C424.627 75.0175 421.713 81.6211 416.426 86.1858C411.129 90.758 403.398 93.3293 393.689 93.3293H382.288V115.446H365.93V38.5481H393.689ZM382.288 79.2883H394.539C398.718 79.2883 402.109 77.9829 404.456 75.636C406.802 73.2894 408.055 69.9522 408.056 65.9846C408.056 62.0175 406.803 58.6534 404.459 56.2795C402.113 53.9044 398.721 52.5686 394.539 52.5686H382.288V79.2883Z" fill="#5E17EB" stroke="#5E17EB"/>
<path d="M464.924 57.6985H466.651V71.304H462.921C458.117 71.304 454.323 72.6555 451.73 75.2629C449.138 77.8699 447.815 81.6638 447.815 86.4104V115.436H431.881V58.4377H444.313V77.6243L445.31 77.677C445.991 71.1841 448.027 66.1971 451.298 62.8372C454.562 59.4859 459.107 57.6985 464.924 57.6985Z" fill="#5E17EB" stroke="#5E17EB"/>
<path d="M497.314 56.4333C506.648 56.4333 513.733 59.899 518.489 65.2625C523.253 70.6344 525.711 77.9448 525.711 85.6716V90.8904H483.191L483.276 91.4636C483.869 95.4527 485.305 98.7702 487.737 101.092C490.176 103.419 493.564 104.694 497.951 104.694C504.045 104.694 508.342 102.235 509.931 98.449H524.522C521.825 109.716 511.99 117.45 497.951 117.45C478.488 117.45 468.289 102.693 468.289 87.9998V85.8835C468.289 70.6543 478.7 56.4335 497.314 56.4333ZM497.304 69.1892C493.549 69.1892 490.431 70.2779 488.073 72.4128C485.72 74.5437 484.173 77.6732 483.471 81.6677L483.368 82.2546H510.58L510.502 81.6863C509.96 77.7502 508.577 74.6166 506.344 72.4656C504.104 70.3085 501.061 69.1892 497.304 69.1892Z" fill="#5E17EB" stroke="#5E17EB"/>
<path d="M561.242 69.8267C556.813 69.8267 552.999 71.6084 550.297 74.6821C547.6 77.7516 546.035 82.0832 546.035 87.1597C546.035 92.2392 547.631 96.4927 550.36 99.4819C553.092 102.474 556.933 104.167 561.353 104.167C565.388 104.167 569.092 102.749 571.789 100.08C574.488 97.4079 576.144 93.5169 576.144 88.6372V88.1372H576.134V84.7202C576.134 75.1949 568.988 69.8268 561.242 69.8267ZM530.101 85.9956C530.101 77.6825 532.715 70.3703 537.307 65.144C541.894 59.9236 548.478 56.7574 556.484 56.7573C564.699 56.7573 570.981 59.9693 574.794 66.1558L575.719 67.6577V39.1958H591.755V115.456H579.313V103.78L578.349 103.59C574.727 112.488 567.086 117.359 557.112 117.359C541.195 117.359 530.183 105.131 530.093 88.6382L530.101 88.6313V85.9956Z" fill="#5E17EB" stroke="#5E17EB"/>
<path d="M622.554 58.4377V115.436H606.621V69.928H598.898V58.4377H622.554ZM612.679 35.0559C615.754 35.0559 617.939 35.9516 619.357 37.4055C620.777 38.8622 621.492 40.9444 621.492 43.4426C621.492 45.9406 620.778 47.9963 619.36 49.427C617.944 50.8562 615.758 51.7288 612.679 51.7288C609.604 51.7287 607.418 50.8333 606 49.3909C604.58 47.9459 603.868 45.8879 603.868 43.4426C603.868 40.9446 604.581 38.8622 606.001 37.4055C607.419 35.9517 609.604 35.056 612.679 35.0559Z" fill="#5E17EB" stroke="#5E17EB"/>
<path d="M660.413 56.4333C675.545 56.4333 686.32 65.7557 687.396 79.2498H671.757C671.411 76.7326 670.325 74.458 668.505 72.783C666.575 71.0062 663.855 69.9382 660.413 69.9382C655.975 69.9383 652.67 71.7012 650.494 74.7791C648.336 77.8318 647.322 82.1283 647.322 87.1589C647.322 92.1791 648.225 96.3773 650.351 99.3308C652.498 102.314 655.839 103.956 660.524 103.956C664.005 103.956 666.779 102.976 668.782 101.198C670.686 99.5079 671.846 97.1357 672.283 94.3191H687.826C686.853 108.115 675.67 117.45 660.524 117.45C650.657 117.45 643.389 113.824 638.582 108.369C633.768 102.906 631.39 95.5721 631.388 88.1111V86.0964C631.388 78.3167 633.92 70.8998 638.8 65.4343C643.674 59.9769 650.916 56.4334 660.413 56.4333Z" fill="#5E17EB" stroke="#5E17EB"/>
<path d="M711.998 42.7791V58.448H728.932V69.8269H711.998V93.9304C711.998 96.7168 712.766 98.9765 714.299 100.54C715.834 102.105 718.067 102.903 720.859 102.903H728.932V116.195H721.284C712.585 116.195 706.61 114.74 702.798 111.221C698.996 107.712 697.229 102.041 697.229 93.3035V69.8269H688.444V58.448H697.229V42.7791H711.998Z" fill="#5E17EB" stroke="#5E17EB"/>
<path d="M754.088 33.4399C754.544 33.522 754.907 33.6746 755.176 33.8882C755.572 34.2025 755.83 34.6986 755.83 35.4819V35.6646C755.83 36.2387 755.69 36.6535 755.472 36.9526C755.254 37.2519 754.928 37.4764 754.488 37.6177L753.816 37.8325L754.241 38.395L756.075 40.8228H755.964L753.846 37.9771L753.697 37.7759H753.649C754.22 37.7394 754.717 37.5236 755.079 37.1499C755.476 36.7413 755.676 36.1851 755.676 35.5835C755.676 34.9802 755.472 34.4202 755.078 34.0083C754.812 33.7319 754.475 33.5392 754.088 33.4399ZM751.144 33.3706V40.8228H751.01V33.3706H751.144Z" fill="white" stroke="#5E17EB"/>
<path d="M753.516 48.0332C759.324 48.0332 764.033 43.3248 764.033 37.5166C764.033 31.7084 759.324 27 753.516 27C747.708 27 743 31.7084 743 37.5166C743 43.3248 747.708 48.0332 753.516 48.0332Z" stroke="#5E17EB" stroke-miterlimit="10"/>
</g>
<defs>
<clipPath id="clip0_5556_6252">
<rect width="765" height="155" fill="white"/>
</clipPath>
</defs>
</svg>
